<svg aria-hidden="true" style="position: absolute; width: 0; height: 0; overflow: hidden;" version="1.1" xmlns="http://www.w3.org/2000/svg" xmlns:xlink="http://www.w3.org/1999/xlink">
<defs>
<symbol id="icon-add-converted" viewBox="0 0 32 32">
<path d="M15.74 7.039c-0.351 0.094-0.62 0.37-0.701 0.719l-0.001 0.007c-0.027 0.115-0.049 1.787-0.049 3.715l-0.001 3.504-3.64 0.016c-3.967 0.016-3.789 0.003-4.073 0.316-0.189 0.209-0.251 0.377-0.251 0.685 0 0.316 0.093 0.545 0.292 0.727 0.297 0.269 0.153 0.259 4.031 0.275l3.637 0.016 0.016 3.637c0.016 3.877 0.005 3.733 0.275 4.031 0.181 0.2 0.411 0.292 0.727 0.292s0.545-0.092 0.727-0.292c0.269-0.297 0.259-0.153 0.275-4.031l0.016-3.637 3.637-0.016c3.877-0.016 3.733-0.005 4.031-0.275 0.2-0.181 0.292-0.411 0.292-0.727s-0.092-0.545-0.292-0.727c-0.297-0.269-0.153-0.259-4.031-0.275l-3.637-0.016-0.016-3.637c-0.016-3.877-0.005-3.733-0.275-4.031-0.223-0.247-0.635-0.361-0.987-0.276z"></path>
</symbol>
<symbol id="icon-arrow-3" viewBox="0 0 32 32">
<path d="M8.56 3.089c-0.253 0.117-5.3 5.159-5.435 5.428-0.129 0.259-0.111 0.684 0.043 0.945 0.244 0.416 0.876 0.607 1.287 0.388 0.087-0.045 0.903-0.829 1.812-1.74 0.909-0.912 1.671-1.657 1.693-1.657 0.021 0 0.040 4.912 0.040 10.915v10.916l0.136 0.232c0.315 0.537 1.128 0.625 1.555 0.168 0.301-0.323 0.283 0.432 0.283-11.388v-10.867l1.667 1.659c0.917 0.913 1.751 1.703 1.852 1.753 0.229 0.116 0.671 0.121 0.883 0.012 0.326-0.166 0.545-0.5 0.545-0.884 0-0.148-0.033-0.289-0.091-0.416l0.003 0.006c-0.067-0.144-0.963-1.073-2.759-2.86-2.779-2.765-2.721-2.716-3.159-2.712-0.131 0.014-0.251 0.050-0.359 0.104l0.006-0.003zM22.907 3.013c-0.047 0.015-0.113 0.031-0.18 0.045l-0.016 0.003c-0.207 0.047-0.471 0.288-0.584 0.536-0.093 0.207-0.097 0.656-0.099 11.095l-0.001 10.879-1.667-1.659c-0.917-0.913-1.751-1.704-1.853-1.756-0.229-0.117-0.664-0.121-0.881-0.008-0.326 0.166-0.545 0.498-0.545 0.882 0 0.149 0.033 0.289 0.092 0.416l-0.003-0.006c0.067 0.144 0.965 1.076 2.759 2.863 2.639 2.629 2.66 2.649 2.917 2.687 0.545 0.080 0.461 0.148 3.253-2.633 1.404-1.399 2.623-2.649 2.707-2.78 0.101-0.151 0.161-0.337 0.161-0.537 0-0.54-0.438-0.977-0.977-0.977-0.005 0-0.010 0-0.015 0h0.001c-0.155 0.001-0.303 0.033-0.437 0.091l0.007-0.003c-0.087 0.045-0.903 0.829-1.812 1.74-0.909 0.912-1.671 1.657-1.693 1.657-0.021 0-0.040-4.912-0.040-10.915v-10.916l-0.128-0.219c-0.086-0.135-0.198-0.246-0.329-0.329l-0.004-0.003c-0.2-0.109-0.524-0.188-0.632-0.152z"></path>
</symbol>
<symbol id="icon-arrow-down" viewBox="0 0 32 32">
<path d="M5.067 11.019c-0.403 0.175-0.604 0.484-0.604 0.932 0 0.247 0.028 0.339 0.164 0.533 0.227 0.324 8.995 9.063 9.293 9.261 0.695 0.464 1.221 0.621 2.080 0.621s1.384-0.157 2.080-0.621c0.341-0.228 9.152-9.031 9.317-9.309 0.161-0.272 0.187-0.692 0.056-0.944-0.168-0.326-0.503-0.546-0.888-0.546-0.132 0-0.258 0.026-0.373 0.072l0.007-0.002c-0.14 0.057-1.545 1.425-4.705 4.581-3.096 3.091-4.581 4.537-4.747 4.624-0.203 0.105-0.319 0.125-0.747 0.125s-0.544-0.020-0.747-0.125c-0.165-0.087-1.651-1.533-4.747-4.624-3.16-3.156-4.565-4.524-4.705-4.581-0.107-0.048-0.232-0.077-0.364-0.077-0.134 0-0.261 0.029-0.376 0.082l0.006-0.002z"></path>
</symbol>
<symbol id="icon-arrow-right" viewBox="0 0 32 32">
<path d="M10.88 6.588c-0.453 0.092-0.715 0.189-1.217 0.451-1.337 0.696-2.208 2.057-2.557 4.001-0.083 0.452-0.092 0.988-0.092 4.96 0 4.033 0.009 4.504 0.095 4.987 0.355 1.988 1.277 3.372 2.724 4.080 1.459 0.713 3.297 0.588 5.169-0.353 0.543-0.273 6.641-3.812 7.159-4.155 1.437-0.951 2.377-2.18 2.7-3.529 0.151-0.631 0.121-1.713-0.060-2.283-0.407-1.273-1.443-2.528-2.773-3.361-0.643-0.403-6.555-3.812-7.068-4.077-0.608-0.32-1.314-0.57-2.057-0.714l-0.049-0.008c-0.549-0.096-1.5-0.096-1.973 0.001zM12.925 8.639c0.231 0.061 0.639 0.215 0.907 0.34 0.492 0.231 6.588 3.745 7.239 4.175 0.932 0.613 1.628 1.476 1.843 2.281 0.323 1.215-0.436 2.561-2.007 3.56-0.529 0.336-6.363 3.707-6.803 3.929-0.235 0.12-0.655 0.295-0.933 0.388-0.457 0.155-0.568 0.171-1.197 0.176-0.796 0.007-1.043-0.056-1.569-0.396-0.565-0.365-1.021-1.121-1.269-2.105-0.087-0.343-0.095-0.751-0.095-4.96 0-4.244 0.007-4.617 0.097-5 0.48-2.048 1.845-2.909 3.788-2.388z"></path>
</symbol>
<symbol id="icon-arrowright" viewBox="0 0 32 32">
<path d="M18.8 7.017c-0.581 0.303-0.724 0.969-0.323 1.508 0.1 0.136 1.577 1.64 3.28 3.341l3.096 3.093-10.227 0.027c-9.4 0.024-10.24 0.033-10.387 0.115-0.359 0.199-0.56 0.521-0.56 0.899s0.201 0.7 0.56 0.899c0.147 0.081 0.987 0.091 10.387 0.115l10.227 0.027-3.096 3.093c-1.703 1.701-3.18 3.205-3.28 3.341-0.527 0.708-0.088 1.592 0.792 1.592 0.228 0 0.333-0.032 0.521-0.157 0.395-0.264 8.352-8.265 8.447-8.495 0.048-0.123 0.078-0.264 0.083-0.413l0-0.002c-0.005-0.15-0.035-0.292-0.086-0.424l0.003 0.009c-0.095-0.229-8.052-8.231-8.447-8.495-0.129-0.1-0.294-0.16-0.472-0.16-0.022 0-0.043 0.001-0.064 0.003l0.003-0c-0.004-0-0.010-0-0.015-0-0.159 0-0.311 0.031-0.451 0.087l0.008-0.003z"></path>
</symbol>
<symbol id="icon-bubble" viewBox="0 0 32 32">
<path d="M20.133 1.711c-2.487 0.192-4.717 1.576-6.055 3.757-0.967 1.577-1.332 3.608-0.988 5.492 0.245 1.191 0.714 2.243 1.364 3.157l-0.017-0.025c0.513 0.67 1.094 1.251 1.742 1.748l0.022 0.016c3.163 2.265 7.531 1.879 10.201-0.903 1.32-1.376 2.040-2.977 2.18-4.855 0.015-0.183 0.024-0.395 0.024-0.61 0-2.125-0.851-4.052-2.232-5.457l0.001 0.001c-1.657-1.683-3.868-2.505-6.243-2.323zM21.932 3.789c0.597 0.121 1.227 0.355 1.748 0.648 0.811 0.456 1.72 1.365 2.176 2.176 1.26 2.241 0.929 5.025-0.816 6.875-0.944 1.007-2.235 1.678-3.681 1.823l-0.025 0.002c-1.265 0.137-2.673-0.215-3.765-0.941-1.787-1.188-2.815-3.339-2.589-5.416 0.26-2.392 1.855-4.343 4.113-5.029 0.619-0.188 0.933-0.233 1.672-0.24 0.039-0.001 0.085-0.002 0.132-0.002 0.366 0 0.724 0.038 1.069 0.11l-0.034-0.006zM7.929 16.751c-2.016 0.217-3.771 1.671-4.324 3.581-0.7 2.417 0.393 4.949 2.608 6.041 2.523 1.243 5.591 0.213 6.827-2.293 0.333-0.661 0.528-1.44 0.528-2.265 0-1.209-0.419-2.321-1.12-3.197l0.008 0.010c-0.945-1.167-2.378-1.906-3.984-1.906-0.191 0-0.38 0.011-0.566 0.031l0.023-0.002zM9.576 18.901c0.835 0.348 1.484 1.004 1.815 1.822l0.008 0.022c0.132 0.359 0.148 0.472 0.148 1.068s-0.016 0.709-0.148 1.068c-0.339 0.84-0.987 1.495-1.801 1.835l-0.022 0.008c-0.497 0.189-1.329 0.237-1.843 0.108-0.747-0.195-1.37-0.639-1.789-1.237l-0.007-0.010c-0.412-0.575-0.524-0.955-0.524-1.772s0.112-1.197 0.524-1.772c0.419-0.591 1.020-1.029 1.72-1.234l0.023-0.006c0.475-0.131 1.42-0.081 1.896 0.1zM21.615 21.548c-1.728 0.185-3.208 1.456-3.707 3.183-0.175 0.604-0.175 1.777 0.001 2.387 0.429 1.485 1.66 2.695 3.131 3.075 0.324 0.084 0.592 0.109 1.12 0.109s0.796-0.025 1.12-0.109c1.471-0.38 2.701-1.589 3.131-3.075 0.176-0.613 0.176-1.781 0-2.395-0.365-1.206-1.183-2.178-2.252-2.737l-0.025-0.012c-0.725-0.365-1.64-0.52-2.519-0.425zM22.875 23.621c1.123 0.349 1.857 1.515 1.669 2.649-0.199 1.203-1.184 2.049-2.384 2.049s-2.185-0.847-2.384-2.049c-0.148-0.888 0.303-1.88 1.077-2.377 0.374-0.234 0.829-0.373 1.316-0.373 0.251 0 0.494 0.037 0.723 0.106l-0.018-0.005z"></path>
</symbol>
<symbol id="icon-close-circle" viewBox="0 0 32 32">
<path d="M15.067 1.707c-3.459 0.216-6.675 1.683-9.176 4.184-2.297 2.299-3.665 5.071-4.107 8.323-0.117 0.865-0.117 2.708 0 3.573 0.351 2.58 1.256 4.787 2.825 6.88 0.608 0.812 1.891 2.097 2.697 2.704 2.097 1.579 4.328 2.497 6.907 2.844 0.864 0.116 2.709 0.116 3.573 0 2.579-0.347 4.809-1.265 6.907-2.844 0.787-0.592 2.085-1.891 2.677-2.677 1.579-2.097 2.497-4.328 2.844-6.907 0.116-0.864 0.116-2.709 0-3.573-0.347-2.579-1.265-4.809-2.844-6.907-0.592-0.787-1.891-2.085-2.677-2.677-2.835-2.135-6.153-3.141-9.627-2.923zM17.307 3.733c1.832 0.201 3.856 0.921 5.36 1.908 2.413 1.581 4.155 3.839 5.037 6.531 0.451 1.376 0.615 2.397 0.615 3.828s-0.164 2.452-0.615 3.828c-1.247 3.74-4.136 6.629-7.789 7.851l-0.087 0.025c-1.376 0.451-2.397 0.615-3.828 0.615s-2.452-0.164-3.828-0.615c-4.032-1.354-7.087-4.615-8.128-8.682l-0.019-0.086c-0.269-1.071-0.315-1.489-0.315-2.936 0-1.696 0.127-2.512 0.613-3.949 1.516-4.475 5.616-7.787 10.289-8.312 0.572-0.064 2.129-0.067 2.693-0.005zM11.813 11.316c-0.169 0.093-0.403 0.325-0.485 0.481-0.088 0.169-0.099 0.613-0.019 0.825 0.032 0.083 0.781 0.877 1.665 1.764l1.609 1.613-1.609 1.613c-0.884 0.888-1.633 1.681-1.665 1.764-0.080 0.212-0.069 0.656 0.019 0.825 0.087 0.164 0.323 0.396 0.495 0.484 0.171 0.088 0.636 0.073 0.833-0.025 0.093-0.047 0.884-0.796 1.757-1.667l1.587-1.58 1.587 1.58c0.873 0.871 1.664 1.62 1.757 1.667 0.211 0.105 0.665 0.111 0.859 0.011 0.164-0.087 0.396-0.323 0.484-0.495 0.088-0.171 0.073-0.636-0.025-0.833-0.047-0.093-0.796-0.884-1.667-1.757l-1.58-1.587 1.58-1.587c0.871-0.873 1.62-1.664 1.667-1.757 0.099-0.197 0.113-0.663 0.025-0.833-0.12-0.204-0.284-0.37-0.478-0.491l-0.006-0.004c-0.169-0.088-0.613-0.099-0.825-0.019-0.083 0.032-0.877 0.781-1.764 1.667l-1.615 1.609-1.585-1.581c-0.873-0.869-1.664-1.619-1.757-1.665-0.195-0.097-0.684-0.111-0.843-0.023z"></path>
</symbol>
<symbol id="icon-direct-inbox" viewBox="0 0 32 32">
<path d="M15.74 1.705c-0.351 0.094-0.62 0.37-0.701 0.719l-0.001 0.007c-0.027 0.115-0.049 1.769-0.049 3.675l-0.001 3.467-0.547-0.54c-0.301-0.297-0.607-0.571-0.68-0.608-0.184-0.095-0.687-0.085-0.88 0.016-0.195 0.109-0.351 0.268-0.453 0.461l-0.003 0.006c-0.095 0.185-0.085 0.687 0.017 0.88 0.047 0.088 0.74 0.813 1.541 1.612 1.472 1.465 1.659 1.615 2.017 1.615s0.545-0.149 2.017-1.615c0.801-0.799 1.495-1.524 1.541-1.612 0.103-0.193 0.112-0.695 0.017-0.88-0.105-0.198-0.261-0.357-0.45-0.464l-0.006-0.003c-0.208-0.109-0.701-0.108-0.907 0.001-0.088 0.047-0.388 0.315-0.667 0.596l-0.507 0.512-0.027-3.588c-0.028-3.817-0.019-3.684-0.287-3.98-0.223-0.247-0.635-0.361-0.987-0.276zM8.747 4.593c-2.153 0.443-3.539 1.125-4.684 2.309-1.481 1.531-2.197 3.595-2.355 6.777-0.069 1.421-0.069 6.204 0 7.467 0.232 4.193 1.553 6.669 4.292 8.045 1.299 0.652 2.763 0.984 4.853 1.1 1.24 0.068 9.045 0.068 10.279 0 3.773-0.209 6.133-1.288 7.589-3.468 0.953-1.429 1.439-3.201 1.572-5.749 0.069-1.305 0.068-5.912-0.001-7.368-0.153-3.199-0.869-5.268-2.355-6.804-1.137-1.176-2.609-1.905-4.613-2.289-0.568-0.109-0.887-0.101-1.135 0.025-0.536 0.273-0.681 1.027-0.288 1.495 0.201 0.239 0.365 0.305 1.123 0.456 2.375 0.473 3.805 1.531 4.556 3.367 0.537 1.316 0.74 2.689 0.74 5.017v1.347h-2.413c-1.376 0-2.563 0.024-2.76 0.055-0.48 0.076-0.983 0.333-1.315 0.672-0.235 0.24-0.413 0.555-1.215 2.148-1.033 2.051-1.095 2.137-1.668 2.352-0.273 0.101-0.413 0.107-2.949 0.107-2.559 0-2.675-0.004-2.956-0.109-0.549-0.205-0.665-0.372-1.676-2.381-0.68-1.353-0.975-1.884-1.157-2.088-0.307-0.34-0.871-0.632-1.359-0.703-0.191-0.028-1.435-0.051-2.765-0.051l-2.419-0.001 0.027-1.72c0.040-2.427 0.236-3.577 0.84-4.924 0.721-1.607 2.212-2.643 4.441-3.087 0.757-0.151 0.921-0.217 1.123-0.456 0.138-0.161 0.222-0.372 0.222-0.603 0-0.081-0.010-0.159-0.030-0.234l0.001 0.006c-0.145-0.653-0.663-0.889-1.545-0.709zM9.627 20.153c0.499 0.979 1.004 1.909 1.124 2.068 0.32 0.425 0.787 0.796 1.329 1.059 0.773 0.373 0.771 0.373 3.973 0.373 2.592 0 2.885-0.009 3.2-0.097 0.729-0.203 1.475-0.673 1.907-1.204 0.165-0.204 0.576-0.945 1.187-2.145l0.933-1.833 5.052-0.028-0.027 1.721c-0.033 2.111-0.125 2.821-0.525 4.085-0.761 2.4-2.344 3.572-5.461 4.044-0.587 0.089-1.103 0.097-6.319 0.097s-5.732-0.008-6.319-0.097c-2.408-0.365-3.847-1.125-4.751-2.513-0.547-0.837-0.876-1.799-1.1-3.203-0.088-0.559-0.115-1.028-0.136-2.413l-0.027-1.721 5.052 0.028 0.907 1.78z"></path>
</symbol>
<symbol id="icon-edit-2" viewBox="0 0 32 32">
<path d="M20.696 1.924c-1.373 0.179-2.531 0.917-4.216 2.689-5.324 5.599-10.673 11.319-10.869 11.62-0.295 0.453-0.571 1.081-0.673 1.532-0.143 0.623-0.624 5.051-0.587 5.405 0.089 0.865 0.347 1.433 0.897 1.979 0.585 0.581 1.241 0.839 2.139 0.837 0.64 0 5.028-0.749 5.56-0.949 0.443-0.167 0.969-0.452 1.311-0.709 0.269-0.203 11.295-11.843 11.88-12.541 0.769-0.919 1.279-1.928 1.439-2.849 0.080-0.456 0.039-1.496-0.077-1.924-0.127-0.476-0.619-1.432-0.999-1.947-0.444-0.6-1.401-1.539-2.024-1.988-0.936-0.672-1.811-1.044-2.715-1.156-0.501-0.063-0.571-0.061-1.065 0.001zM22.213 4.080c0.805 0.32 1.844 1.137 2.529 1.988 1.040 1.293 1.171 2.399 0.431 3.647-0.284 0.477-0.657 0.924-1.619 1.939-0.928 0.98-0.819 0.935-1.671 0.689-1.832-0.528-3.505-1.933-4.377-3.676-0.228-0.455-0.547-1.347-0.547-1.531 0-0.067 0.221-0.347 0.559-0.709 1.577-1.691 2.135-2.141 3.015-2.436 0.441-0.148 1.184-0.108 1.68 0.089zM15.413 8.884c0 0.137 0.663 1.369 0.979 1.82 0.59 0.8 1.261 1.492 2.012 2.085l0.023 0.017c0.635 0.488 1.747 1.088 2.412 1.301 0.248 0.080 0.272 0.101 0.213 0.181-0.036 0.051-1.845 1.973-4.021 4.275-4.083 4.316-4.148 4.379-4.764 4.601-0.309 0.111-4.561 0.835-4.905 0.835-0.32 0-0.515-0.069-0.715-0.257-0.213-0.199-0.3-0.432-0.3-0.808 0-0.296 0.439-4.299 0.511-4.668 0.017-0.088 0.125-0.356 0.24-0.595 0.2-0.419 0.344-0.579 4.216-4.677 2.204-2.335 4.029-4.232 4.055-4.216 0.025 0.015 0.045 0.063 0.045 0.105zM3.74 28.373c-0.508 0.12-0.824 0.66-0.701 1.196 0.095 0.413 0.424 0.697 0.871 0.749 0.152 0.019 5.701 0.025 12.331 0.017 12.935-0.017 12.14 0 12.445-0.276 0.2-0.181 0.292-0.411 0.292-0.727s-0.092-0.545-0.292-0.727c-0.305-0.276 0.503-0.26-12.579-0.268-6.703-0.004-12.268 0.011-12.367 0.035z"></path>
</symbol>
<symbol id="icon-logout" viewBox="0 0 32 32">
<path d="M18.64 2.381c-1.971 0.161-3.673 0.699-4.833 1.525-0.799 0.571-1.611 1.565-2.045 2.505-0.401 0.869-0.701 2-0.833 3.136-0.077 0.673-0.043 0.9 0.176 1.149 0.408 0.465 0.98 0.503 1.432 0.093 0.243-0.219 0.283-0.34 0.399-1.191 0.401-2.973 1.66-4.424 4.345-5.011 0.951-0.208 1.38-0.243 2.96-0.24 1.316 0.001 1.655 0.019 2.267 0.116 2.847 0.453 4.195 1.588 4.828 4.067 0.323 1.265 0.357 2.103 0.332 8.055-0.024 5.427-0.031 5.591-0.283 6.707-0.403 1.781-1.197 2.907-2.531 3.587-0.393 0.182-0.863 0.353-1.349 0.485l-0.065 0.015c-1 0.253-2.703 0.376-4.147 0.297-2.733-0.148-4.371-0.831-5.327-2.22-0.444-0.647-0.828-1.711-0.984-2.729-0.149-0.98-0.185-1.123-0.327-1.291-0.537-0.639-1.583-0.389-1.749 0.417-0.045 0.22 0.048 0.98 0.219 1.78 0.523 2.448 1.695 4.077 3.621 5.028 1.416 0.7 3.241 1.043 5.547 1.043 5.792 0.001 8.629-2.221 9.263-7.252 0.101-0.808 0.103-12.039 0.001-12.853-0.217-1.741-0.643-3.020-1.361-4.095-1.207-1.801-3.089-2.777-5.949-3.080-0.652-0.069-2.949-0.097-3.607-0.044zM7.249 10.717c-0.387 0.257-4.724 4.639-4.82 4.868-0.050 0.123-0.079 0.265-0.079 0.415s0.029 0.292 0.082 0.422l-0.003-0.008c0.096 0.229 4.433 4.611 4.82 4.868 0.188 0.125 0.293 0.157 0.521 0.157 0.88 0 1.319-0.884 0.793-1.592-0.101-0.136-0.761-0.824-1.468-1.528l-1.284-1.28 7.241-0.027c6.605-0.024 7.255-0.035 7.4-0.115 0.314-0.16 0.525-0.48 0.525-0.85 0-0.017-0-0.034-0.001-0.051l0 0.002c0.001-0.014 0.001-0.031 0.001-0.049 0-0.37-0.211-0.691-0.52-0.848l-0.005-0.002c-0.145-0.080-0.795-0.091-7.4-0.115l-7.241-0.027 1.284-1.28c0.707-0.704 1.367-1.392 1.468-1.528 0.525-0.708 0.087-1.592-0.793-1.592-0.015-0.001-0.033-0.002-0.051-0.002-0.178 0-0.342 0.060-0.472 0.16l0.002-0.001z"></path>
</symbol>
<symbol id="icon-menu" viewBox="0 0 32 32">
<path d="M8.027 3.555c-1.476 0.225-2.691 1.166-3.294 2.452l-0.011 0.027c-0.457 0.961-0.489 2.279-0.081 3.367 0.349 0.936 1.371 1.968 2.332 2.359 0.96 0.389 2.323 0.389 3.283 0 0.961-0.391 1.983-1.423 2.332-2.359 0.289-0.771 0.364-1.773 0.193-2.572-0.161-0.752-0.647-1.585-1.247-2.14-0.819-0.759-1.652-1.103-2.76-1.14-0.094-0.005-0.205-0.008-0.316-0.008-0.151 0-0.302 0.005-0.45 0.016l0.020-0.001zM22.8 3.555c-1.476 0.225-2.692 1.166-3.294 2.452l-0.011 0.027c-0.457 0.961-0.489 2.279-0.081 3.367 0.349 0.936 1.371 1.968 2.332 2.359 0.96 0.389 2.323 0.389 3.283 0 0.961-0.391 1.983-1.423 2.332-2.359 0.289-0.771 0.364-1.773 0.193-2.572-0.161-0.752-0.647-1.585-1.247-2.14-0.819-0.759-1.652-1.103-2.76-1.14-0.094-0.005-0.205-0.008-0.316-0.008-0.151 0-0.302 0.005-0.451 0.016l0.020-0.001zM9.301 5.632c0.567 0.16 1.1 0.639 1.381 1.237 0.305 0.653 0.256 1.512-0.121 2.107-0.556 0.876-1.549 1.279-2.528 1.024-0.797-0.224-1.411-0.841-1.628-1.622l-0.004-0.016c-0.115-0.424-0.052-1.075 0.144-1.493 0.503-1.075 1.596-1.564 2.756-1.236zM24.075 5.632c0.567 0.16 1.1 0.639 1.381 1.237 0.305 0.653 0.256 1.512-0.121 2.107-0.556 0.876-1.549 1.279-2.528 1.024-0.797-0.224-1.411-0.841-1.628-1.622l-0.004-0.016c-0.115-0.424-0.052-1.075 0.144-1.493 0.503-1.075 1.596-1.564 2.756-1.236zM7.656 20.035c-1.045 0.224-2.023 0.915-2.649 1.875-0.449 0.688-0.644 1.373-0.644 2.277-0.001 0.716 0.107 1.249 0.359 1.78 0.576 1.215 1.547 2.025 2.852 2.385 0.481 0.133 1.599 0.133 2.080 0 1.305-0.36 2.276-1.171 2.852-2.385 0.457-0.961 0.489-2.279 0.081-3.367-0.349-0.936-1.371-1.968-2.332-2.359-0.709-0.288-1.811-0.376-2.599-0.207zM22.429 20.035c-1.045 0.224-2.023 0.915-2.649 1.875-0.449 0.688-0.644 1.373-0.644 2.277-0.001 0.716 0.107 1.249 0.359 1.78 0.576 1.215 1.547 2.025 2.852 2.385 0.481 0.133 1.599 0.133 2.080 0 1.305-0.36 2.276-1.171 2.852-2.385 0.457-0.961 0.489-2.279 0.081-3.367-0.349-0.936-1.371-1.968-2.332-2.359-0.709-0.288-1.811-0.376-2.599-0.207zM9.193 22c0.772 0.219 1.371 0.805 1.606 1.551l0.005 0.017c0.137 0.472 0.088 1.115-0.121 1.563-0.395 0.843-1.157 1.335-2.069 1.335-0.911 0-1.675-0.492-2.068-1.333-0.119-0.232-0.189-0.507-0.189-0.797v-0c-0.036-0.707 0.152-1.225 0.62-1.7 0.612-0.623 1.399-0.847 2.217-0.635zM23.967 22c0.772 0.219 1.371 0.805 1.606 1.551l0.005 0.017c0.137 0.472 0.088 1.115-0.121 1.563-0.395 0.843-1.157 1.335-2.069 1.335-0.911 0-1.675-0.492-2.068-1.333-0.119-0.232-0.189-0.507-0.189-0.797v-0c-0.036-0.707 0.152-1.225 0.62-1.7 0.612-0.623 1.399-0.847 2.217-0.635z"></path>
</symbol>
<symbol id="icon-milk" viewBox="0 0 32 32">
<path d="M12.16 1.713c-0.531 0.073-1.163 0.407-1.601 0.845-1.196 1.195-1.18 3.051 0.036 4.251l0.392 0.387v1.739l-1.549 1.545c-1.597 1.595-1.869 1.924-2.133 2.587-0.303 0.761-0.284 0.36-0.304 6.48-0.019 5.704-0.001 6.38 0.175 7.083 0.127 0.507 0.62 1.451 0.987 1.892 0.437 0.525 1.021 0.976 1.671 1.291 0.492 0.262 1.068 0.434 1.68 0.479l0.014 0.001c0.656 0.069 8.291 0.069 8.947 0 0.626-0.046 1.203-0.218 1.718-0.491l-0.023 0.011c0.659-0.321 1.215-0.756 1.665-1.284l0.006-0.007c0.367-0.441 0.86-1.385 0.987-1.892 0.176-0.703 0.193-1.379 0.175-7.083-0.020-6.12-0.001-5.719-0.304-6.48-0.264-0.663-0.536-0.992-2.133-2.587l-1.549-1.545v-1.739l0.392-0.387c0.716-0.707 1.017-1.581 0.888-2.572-0.168-1.268-1.26-2.363-2.524-2.529-0.512-0.067-7.109-0.063-7.609 0.005zM19.776 3.781c0.325 0.158 0.544 0.485 0.544 0.864 0 0.008-0 0.015-0 0.023l0-0.001c0 0.006 0 0.014 0 0.022 0 0.379-0.22 0.706-0.539 0.861l-0.006 0.003c-0.189 0.096-0.371 0.101-3.776 0.101s-3.587-0.005-3.776-0.101c-0.206-0.096-0.367-0.26-0.455-0.463l-0.002-0.006c-0.171-0.337-0.065-0.897 0.215-1.143 0.301-0.264 0.169-0.256 4.008-0.257 3.419-0.003 3.597 0.003 3.787 0.099zM18.988 8.227c0.001 0.751 0.069 1.157 0.263 1.572 0.147 0.313 0.344 0.532 1.788 1.985 1.377 1.385 1.647 1.681 1.772 1.952l0.149 0.317 0.029 4.933h-2.308c-2.88 0-3.037-0.023-4.395-0.632-0.691-0.309-0.975-0.407-1.632-0.553-0.453-0.101-0.708-0.112-3.071-0.133l-2.575-0.024 0.015-1.795 0.016-1.796 0.149-0.317c0.125-0.271 0.395-0.567 1.772-1.952 1.449-1.46 1.641-1.672 1.789-1.989 0.188-0.403 0.259-0.829 0.261-1.595l0.001-0.52h5.973l0.001 0.547zM13.92 19.736c0.523 0.075 1.069 0.251 1.789 0.575 0.321 0.145 0.76 0.316 0.975 0.38 0.924 0.275 1.007 0.281 3.729 0.307l2.573 0.025v2.381c-0.001 1.912-0.016 2.44-0.079 2.673-0.297 1.054-1.11 1.867-2.142 2.159l-0.022 0.005c-0.432 0.115-9.056 0.115-9.488 0-1.054-0.297-1.867-1.11-2.159-2.142l-0.005-0.022c-0.064-0.237-0.077-0.848-0.079-3.357v-3.067l2.253 0.013c1.245 0.007 2.432 0.037 2.653 0.069z"></path>
</symbol>
<symbol id="icon-profile-circle" viewBox="0 0 32 32">
<path d="M15.333 1.688c-5.965 0.296-10.949 4.19-12.846 9.544l-0.031 0.1c-0.545 1.581-0.763 2.916-0.763 4.668s0.217 3.087 0.763 4.668c1.053 3.063 3.181 5.74 5.971 7.513 0.537 0.341 1.983 1.047 2.632 1.285 2.751 1.008 5.892 1.143 8.701 0.372 0.98-0.265 1.83-0.601 2.632-1.018l-0.072 0.034c1.673-0.821 2.935-1.772 4.277-3.223 1.731-1.868 3.012-4.427 3.476-6.944 0.177-0.959 0.232-1.593 0.232-2.688 0-2.328-0.445-4.263-1.455-6.32-1.792-3.652-5.003-6.328-8.953-7.465-1.195-0.341-2.568-0.538-3.986-0.538-0.203 0-0.405 0.004-0.607 0.012l0.029-0.001zM18.080 3.84c2.159 0.393 4.062 1.284 5.652 2.55l-0.026-0.020c0.681 0.58 1.294 1.192 1.857 1.847l0.019 0.022c1.065 1.322 1.88 2.895 2.344 4.612l0.020 0.089c0.293 1.16 0.347 1.633 0.347 3.059s-0.053 1.899-0.347 3.059c-0.475 1.757-1.255 3.289-2.288 4.614l0.022-0.029-0.248 0.311-0.309-0.471c-1.081-1.641-3.217-2.933-5.843-3.533-2.508-0.573-5.4-0.444-7.795 0.349-2.053 0.68-3.715 1.827-4.608 3.184l-0.309 0.471-0.248-0.311c-1.236-1.552-2.12-3.539-2.487-5.591-0.109-0.607-0.124-0.864-0.124-2.053s0.015-1.447 0.124-2.053c0.393-2.192 1.304-4.124 2.601-5.731l-0.019 0.024c0.582-0.678 1.195-1.29 1.854-1.85l0.023-0.019c1.563-1.249 3.468-2.138 5.551-2.513l0.076-0.011c0.944-0.156 0.964-0.157 2.293-0.14 0.949 0.012 1.339 0.040 1.867 0.133zM15.173 7.385c-0.489 0.064-0.933 0.197-1.343 0.39l0.027-0.012c-2.607 1.116-3.897 4.207-2.859 6.849 0.683 1.742 2.21 3.018 4.063 3.334l0.031 0.004c3.104 0.508 5.915-1.639 6.236-4.761 0.289-2.813-1.711-5.383-4.52-5.805-0.246-0.044-0.529-0.069-0.818-0.069s-0.572 0.025-0.847 0.073l0.029-0.004zM16.88 9.423c0.783 0.195 1.713 0.928 2.096 1.653 0.609 1.159 0.483 2.663-0.309 3.649-0.669 0.833-1.661 1.328-2.667 1.328-0.816-0.023-1.56-0.315-2.151-0.789l0.007 0.005c-0.813-0.685-1.213-1.541-1.215-2.604-0.003-0.937 0.301-1.66 0.985-2.348 0.891-0.897 2.003-1.203 3.253-0.895zM18.027 21.732c2.869 0.497 5.168 1.869 5.765 3.443l0.108 0.284-0.172 0.137c-2.097 1.691-4.792 2.716-7.726 2.724h-0.002c-2.936-0.008-5.631-1.033-7.752-2.743l0.024 0.019-0.172-0.137 0.108-0.284c0.559-1.469 2.679-2.813 5.261-3.336 0.367-0.075 0.84-0.156 1.052-0.183 0.615-0.077 2.913-0.027 3.505 0.076z"></path>
</symbol>
<symbol id="icon-setting-2" viewBox="0 0 32 32">
<path d="M11.219 2.455c-0.221 0.045-0.411 0.1-0.595 0.168l0.028-0.009c-0.332 0.124-2.857 1.56-3.247 1.847-0.816 0.599-1.327 1.649-1.337 2.755-0.007 0.651 0.069 0.947 0.445 1.749 0.505 1.077 0.529 1.487 0.108 1.908-0.267 0.267-0.623 0.372-1.476 0.433-0.787 0.057-1.141 0.147-1.599 0.403-0.848 0.479-1.48 1.256-1.761 2.185l-0.007 0.027c-0.085 0.303-0.097 0.567-0.097 2.080s0.012 1.777 0.097 2.080c0.288 0.956 0.92 1.733 1.749 2.202l0.019 0.010c0.457 0.256 0.812 0.345 1.599 0.403 0.853 0.061 1.209 0.167 1.476 0.433 0.417 0.417 0.393 0.84-0.109 1.911-0.375 0.799-0.451 1.096-0.444 1.747 0.011 1.105 0.521 2.156 1.337 2.756 0.385 0.283 2.924 1.724 3.253 1.848 0.651 0.243 1.428 0.241 2.179-0.007 0.695-0.229 1.333-0.791 1.804-1.585 0.585-0.989 1.188-1.327 1.821-1.020 0.287 0.139 0.585 0.476 0.932 1.049 0.633 1.048 1.387 1.568 2.495 1.72 0.576 0.079 1.123-0.001 1.64-0.24 0.212-0.097 0.967-0.509 1.679-0.915 1.157-0.661 1.34-0.784 1.725-1.165 0.709-0.703 1.009-1.451 1.007-2.507-0.003-0.66-0.121-1.107-0.467-1.74-0.591-1.088-0.46-1.812 0.383-2.128 0.185-0.069 0.524-0.123 0.987-0.157 0.387-0.028 0.836-0.091 0.997-0.139 1.191-0.356 2.176-1.435 2.423-2.647 0.12-0.592 0.12-3.233 0-3.816-0.203-0.98-0.789-1.781-1.712-2.336-0.459-0.277-0.905-0.396-1.708-0.453-1.244-0.089-1.731-0.408-1.731-1.136 0-0.341 0.101-0.645 0.428-1.28 0.309-0.601 0.408-1.020 0.401-1.688-0.009-0.98-0.328-1.748-1.008-2.427-0.391-0.389-0.547-0.495-1.813-1.212-0.355-0.215-0.905-0.519-1.464-0.811l-0.219-0.104c-0.823-0.36-1.913-0.275-2.811 0.221-0.376 0.207-0.917 0.779-1.227 1.295-0.499 0.829-0.903 1.171-1.384 1.171-0.497 0-0.912-0.345-1.403-1.171-0.509-0.855-1.211-1.413-2.044-1.627-0.413-0.105-1.012-0.141-1.351-0.081zM12.24 4.528c0.273 0.127 0.479 0.353 0.8 0.885 0.372 0.615 1.107 1.331 1.627 1.585 0.503 0.247 0.813 0.316 1.393 0.315 1.153-0.004 2.163-0.68 2.956-1.98 0.408-0.669 0.755-0.909 1.311-0.905 0.279 0.003 0.385 0.053 1.833 0.879 1.268 0.724 1.557 0.963 1.705 1.411 0.159 0.477 0.096 0.872-0.255 1.603-0.365 0.761-0.468 1.171-0.471 1.879-0.004 0.908 0.281 1.565 0.939 2.164 0.595 0.543 1.371 0.831 2.464 0.913 0.863 0.067 1.209 0.224 1.541 0.703 0.231 0.332 0.287 0.733 0.287 2.021s-0.056 1.689-0.287 2.021c-0.332 0.479-0.679 0.636-1.541 0.703-1.093 0.083-1.869 0.371-2.464 0.913-0.657 0.599-0.943 1.256-0.939 2.164 0.003 0.708 0.105 1.117 0.471 1.879 0.351 0.731 0.413 1.125 0.255 1.603-0.148 0.448-0.437 0.687-1.705 1.411-1.448 0.825-1.555 0.876-1.833 0.879-0.555 0.004-0.885-0.216-1.263-0.84-0.828-1.369-1.824-2.043-3.027-2.047-0.656-0.001-1.080 0.124-1.66 0.489-0.44 0.279-1.008 0.88-1.336 1.415-0.463 0.756-0.76 0.98-1.297 0.983-0.332 0.001-0.284 0.024-1.823-0.844-1.341-0.756-1.579-0.948-1.76-1.427-0.172-0.455-0.132-0.829 0.145-1.381 0.688-1.373 0.772-2.472 0.264-3.472-0.224-0.431-0.54-0.786-0.925-1.048l-0.010-0.006c-0.628-0.417-1.213-0.596-2.192-0.671-0.733-0.056-0.991-0.148-1.303-0.463-0.437-0.441-0.435-0.428-0.435-2.26s-0.003-1.819 0.435-2.26c0.312-0.315 0.569-0.407 1.303-0.463 1.575-0.119 2.597-0.684 3.127-1.725 0.508-1 0.424-2.099-0.264-3.472-0.277-0.552-0.317-0.927-0.145-1.381 0.181-0.479 0.419-0.671 1.76-1.427 0.66-0.372 1.271-0.713 1.359-0.759 0.221-0.113 0.699-0.107 0.96 0.015zM15.46 11.043c-1.397 0.158-2.602 0.869-3.41 1.905l-0.008 0.011c-0.317 0.417-0.751 1.291-0.865 1.741-0.096 0.39-0.151 0.839-0.151 1.3s0.055 0.91 0.159 1.339l-0.008-0.039c0.115 0.451 0.548 1.324 0.865 1.741 0.488 0.643 1.089 1.116 1.895 1.492 0.599 0.284 1.301 0.449 2.042 0.449 0.179 0 0.356-0.010 0.53-0.029l-0.022 0.002c0.581-0.044 1.117-0.195 1.603-0.434l-0.026 0.011c1.14-0.532 1.875-1.253 2.417-2.373 0.259-0.485 0.429-1.055 0.474-1.659l0.001-0.014c0.017-0.153 0.027-0.33 0.027-0.509 0-0.741-0.166-1.443-0.462-2.072l0.013 0.030c-0.587-1.256-1.504-2.113-2.809-2.623-0.588-0.231-1.561-0.347-2.264-0.271zM16.765 13.097c0.501 0.129 0.929 0.383 1.341 0.796 0.608 0.608 0.88 1.259 0.88 2.107s-0.272 1.499-0.88 2.107c-0.608 0.608-1.259 0.88-2.107 0.88s-1.499-0.272-2.107-0.88c-0.608-0.608-0.88-1.259-0.88-2.107s0.272-1.499 0.88-2.107c0.612-0.611 1.221-0.869 2.072-0.876 0.271-0.003 0.613 0.032 0.8 0.080z"></path>
</symbol>
</defs>
</svg>
